<svg xmlns="http://www.w3.org/2000/svg" viewBox="0 0 900 600">
  <defs>
    <linearGradient id="bg" x1="0" x2="1" y1="0" y2="1"><stop offset="0" stop-color="#f7fbff"/><stop offset="1" stop-color="#dbeefe"/></linearGradient>
    <linearGradient id="b" x1="0" x2="1"><stop offset="0" stop-color="#c7eaff"/><stop offset=".5" stop-color="#ffffff"/><stop offset="1" stop-color="#7bc4ee"/></linearGradient>
    <filter id="shadow" x="-20%" y="-20%" width="140%" height="140%"><feDropShadow dx="0" dy="18" stdDeviation="18" flood-color="#355" flood-opacity=".22"/></filter>
  </defs>
  <rect width="900" height="600" fill="url(#bg)"/>
  <circle cx="740" cy="90" r="155" fill="#bde7ff" opacity=".55"/>
  <circle cx="140" cy="515" r="210" fill="#ffffff" opacity=".55"/>
  <g filter="url(#shadow)">
    <rect x="337" y="84" width="226" height="70" rx="18" fill="#9ed8f7"/>
    <rect x="374" y="142" width="152" height="60" rx="12" fill="#dff6ff"/>
    <path d="M330 190c0-30 240-30 240 0v285c0 50-240 50-240 0z" fill="url(#b)" stroke="#5aaed8" stroke-width="8"/>
    <path d="M365 270c45-24 129-26 176 0v120c-48 27-133 27-176 0z" fill="#9f1d24" opacity=".92"/>
    <text x="450" y="325" text-anchor="middle" font-family="Arial, sans-serif" font-weight="800" font-size="40" fill="#fff">ÁGUA</text>
    <text x="450" y="363" text-anchor="middle" font-family="Arial, sans-serif" font-weight="700" font-size="23" fill="#ffe8e8">MINERAL</text>
    <path d="M384 218c-40 70-40 205 0 248" fill="none" stroke="#fff" stroke-width="18" opacity=".42" stroke-linecap="round"/>
  </g>
</svg>